<svg viewBox="0 0 64 64" xmlns="http://www.w3.org/2000/svg" xml:space="preserve" style="fill-rule:evenodd;clip-rule:evenodd;stroke-linecap:round;stroke-linejoin:round;stroke-miterlimit:2"><path style="fill:none" d="M0 0h64v64H0z"/><path d="m16.459 38.773 4.104 18.873h22.874l4.104-18.873" style="fill:none;stroke:#444f58;stroke-width:2px"/><path d="M45 38.773c-8.509 2.358-17.183 2.262-26 0a7.5 7.5 0 0 1-7.5-7.5s0 0 0 0a7.5 7.5 0 0 1 7.5-7.5h.614c.742-6.179 6.008-10.975 12.386-10.975 6.378 0 11.644 4.796 12.386 10.975H45a7.5 7.5 0 0 1 7.5 7.5s0 0 0 0a7.5 7.5 0 0 1-7.5 7.5z" style="fill:none;stroke:#444f58;stroke-width:2px"/><path d="M44.386 23.773c0 2.398-.142 4.244-.567 5.5M25 24v1" style="fill:none;stroke:#444f58;stroke-width:2px"/></svg>