<svg xmlns="http://www.w3.org/2000/svg" viewBox="0 0 150 150" xml:space="preserve"><g fill="#FFCF00"><path d="m60.103 37.962 6 2.729V36.5c0-1.806-1.351-3.27-3.017-3.27-1.668 0-3.019 1.464-3.019 3.27v1.543l.036-.081zM66.103 47.478v-4.731l-6.037-2.745v4.73zM66.103 53.958v-4.649l-.085.186-5.952-2.707v4.425zM66.103 60.196v-4.182l-6.037-2.747v4.183zM60.066 59.506v7.087c0 1.805 1.351 3.27 3.019 3.27 1.666 0 3.017-1.465 3.017-3.27v-4.341l-6.036-2.746z"/></g><g fill="#E47908"><path d="m80.626 37.962 6 2.729V36.5c0-1.806-1.351-3.27-3.017-3.27-1.668 0-3.019 1.464-3.019 3.27v1.543l.036-.081zM86.626 47.478v-4.731l-6.037-2.745v4.73zM86.626 53.958v-4.649l-.085.186-5.952-2.707v4.425zM86.626 60.196v-4.182l-6.037-2.747v4.183zM80.589 59.506v7.087c0 1.805 1.351 3.27 3.019 3.27 1.666 0 3.017-1.465 3.017-3.27v-4.341l-6.036-2.746z"/></g><g fill="#23AF92"><path d="m70.327 28.681 5.999 2.729v-4.191c0-1.807-1.351-3.27-3.017-3.27-1.668 0-3.019 1.464-3.019 3.27v1.543l.037-.081zM76.327 38.197v-4.731l-6.037-2.745v4.73zM76.327 44.676v-4.649l-.085.187-5.952-2.708v4.425zM76.327 50.915v-4.182l-6.037-2.747v4.183zM70.29 50.224v7.087c0 1.805 1.351 3.27 3.019 3.27 1.666 0 3.017-1.465 3.017-3.27V52.97l-6.036-2.746z"/></g><path fill="#F4F7FA" d="M97.972 75.919V63.82c0-3.403-2.007-6.162-4.483-6.162H56.301c-2.476 0-4.483 2.759-4.483 6.162v12.099h46.154z"/><path fill="#D94C52" d="M51.818 62.804s.498-5.146 4.483-5.146H93.49s4.357.829 4.419 5.146c0 0-2.442 3.984-7.408 0 0 0-4.317 3.984-6.973 0 0 0-4.316 4.815-6.972-.166 0 0-4.317 4.317-6.807-.331 0 0-3.819 3.983-6.476 0 0 0-3.652 3.983-5.976.331 0 0-2.822 3.652-5.479.166z"/><path fill="#F4F7FA" d="M107.902 99.315V82.034c0-4.861-2.867-8.803-6.402-8.803H48.381c-3.536 0-6.402 3.941-6.402 8.803v17.281h65.923z"/><path fill="#D94C52" d="M41.979 80.582s.712-7.351 6.402-7.351H101.5s6.222 1.185 6.312 7.351c0 0-3.488 5.692-10.581 0 0 0-6.166 5.692-9.96 0 0 0-6.165 6.877-9.959-.237 0 0-6.166 6.166-9.722-.474 0 0-5.454 5.691-9.249 0 0 0-5.215 5.691-8.536.474-.001 0-4.031 5.217-7.826.237z"/><path fill="#F4F7FA" d="M118.618 126.051v-22.868c0-6.434-3.793-11.65-8.472-11.65H39.854c-4.679 0-8.472 5.215-8.472 11.65v22.868h87.236z"/><path fill="#D94C52" d="M31.382 101.261s.941-9.728 8.472-9.728h70.292s8.233 1.569 8.353 9.728c0 0-4.615 7.531-14.002 0 0 0-8.159 7.531-13.179 0 0 0-8.159 9.101-13.179-.313 0 0-8.159 8.159-12.866-.628 0 0-7.217 7.531-12.238 0 0 0-6.902 7.532-11.297.628-.001 0-5.335 6.903-10.356.313z"/></svg>
