<svg xmlns="http://www.w3.org/2000/svg" viewBox="0 0 512 512" style="enable-background:new 0 0 512 512" xml:space="preserve"><style>.st25{fill:#c56673}.st30{fill:#fff}.st228{fill:#eccdd3}</style><g id="BULINE"><circle id="XMLID_907_" cx="256" cy="256" r="256" style="fill:#a198fb"/></g><g id="Icons"><g id="XMLID_941_"><path id="XMLID_989_" d="M282.6 419.5v38.7h9.5c8.2 0 15.5 3.3 20.9 8.6 5.3 5.3 8.6 12.7 8.6 20.9H187.1c0-16.3 13.2-29.5 29.5-29.5h9.5v-38.7h-18.2c-31.2 0-56.6-25.3-56.6-56.6H360c0 31.3-25.3 56.6-56.6 56.6h-20.8z" style="fill:#ce87d5"/><path id="XMLID_988_" d="M282.6 419.5v38.7h9.5c8.2 0 15.5 3.3 20.9 8.6 5.3 5.3 8.6 12.7 8.6 20.9h-112c0-16.3 13.2-29.5 29.5-29.5h9.5v-38.7h-18.2c-31.2 0-56.6-25.3-56.6-56.6H360c0 31.3-25.3 56.6-56.6 56.6h-20.8z" style="fill:#e799ea"/><path id="XMLID_987_" class="st228" d="M373.3 254v97h-238v-97c0-12 9.7-21.7 21.7-21.7h194.7c11.9 0 21.6 9.7 21.6 21.7z"/><path id="XMLID_985_" class="st30" d="M373.3 256.4V351h-206v-94.5c0-7.7 1.4-14.4 7.8-18 3.2-1.9 2.4-1.4 5.1-3.1h171.4c4 0 7.8 1.1 11 2.9 5.9 3.4 10 9.4 10.6 16.4.1.5.1 1.1.1 1.7z"/><path id="XMLID_983_" class="st228" d="M353 166.6v66H155.6v-66c0-1.7.2-3.3.6-4.8 2.1-7.6 9.1-13.2 17.4-13.2H335c8.1 0 14.9 5.3 17.2 12.7.5 1.7.8 3.5.8 5.3z"/><path id="XMLID_981_" class="st30" d="M353 166.6v66H180v-66c0-9.9 8.1-18 18-18h137c8.1 0 14.9 5.3 17.2 12.7.5 1.7.8 3.5.8 5.3z"/><path id="XMLID_980_" class="st228" d="M328.6 101v47.7H180V101c0-11.6 9.4-21 21-21h106.7c11.5 0 20.9 9.4 20.9 21z"/><path id="XMLID_979_" class="st30" d="M328.6 101v47.7H204.3V101c0-11.6 9.4-21 21-21h82.3c11.6 0 21 9.4 21 21z"/><path id="XMLID_978_" class="st228" d="M352.2 161.3c-28.5 11.3-47.5 0-47.5 0-27 15.7-50.3 0-50.3 0-27 17.3-50 0-50 0-9.1 6-17.3 8.1-24.3 8.3-12.6.3-21.3-5.9-23.7-7.8 2.1-7.6 9.1-13.2 17.4-13.2H335c8.1 0 14.9 5.4 17.2 12.7z"/><path id="XMLID_977_" class="st228" d="M325.4 89.7c-20.8 8.3-34.2-.5-34.2-.5-19.7 11.4-36.7 0-36.7 0-19.7 12.7-36.5 0-36.5 0-6.6 4.4-12.6 5.9-17.8 6.1-9.2.2-15.3-4-17-5.3.8-1.2 1.5-2.3 2.3-3.3 3.2-4.2 8.2-6.6 13.5-6.6h114.3c5.9-.1 10.4 4.2 12.1 9.6z"/><path id="XMLID_976_" class="st228" d="M373.2 252.1c-9.2 3.2-24.7 5.7-41.5-4.1 0 0-9.1 5.4-24 5-15 .4-24-5-24-5-27 15.7-50.3 0-50.3 0-27 17.3-50 0-50 0-5.7 3.8-11.1 6-16 7.2-2.9.7-5.7 1-8.3 1.1-12.7.3-20.8-5.3-23.1-7.2 2.1-7.6 8.5-13.8 16.8-13.8H362.6c5.9 3.5 10 9.6 10.6 16.8z"/><path id="XMLID_975_" class="st25" d="m294.4 28.3-1.8.8-.8-1.8c-4.2-10-15.8-14.8-25.8-10.6l-2.2.9c-10 4.2-14.8 15.8-10.6 25.8l.8 1.8 16.2 38.6 38.6-16.2 1.8-.8c10-4.2 14.8-15.8 10.6-25.8l-.9-2.2c-4.3-9.9-15.9-14.7-25.9-10.5z"/><path id="XMLID_974_" d="m228.3 38.5-.5 1.6-1.6-.5c-8.8-2.6-18.1 2.5-20.6 11.3l-.6 2c-2.6 8.8 2.5 18.1 11.3 20.6l1.6.5 33.9 9.9 9.9-33.9.5-1.6c2.6-8.8-2.5-18.1-11.3-20.6l-2-.6c-8.8-2.6-18.1 2.4-20.6 11.3z" style="fill:#e1a3fb"/><path id="XMLID_942_" class="st228" d="M167.3 291.6c35.3 21 122 47 206 59.3h-206v-59.3z"/><path id="XMLID_918_" class="st25" d="m233 262.1-.6.7-.7-.6c-3.7-3.5-9.5-3.4-13 .2l-.8.8c-3.5 3.7-3.4 9.5.2 13l.7.6 14.1 13.6 13.6-14.1.6-.7c3.5-3.7 3.4-9.5-.2-13l-.8-.8c-3.7-3.5-9.5-3.4-13.1.3z"/><path id="XMLID_922_" class="st25" d="m255.2 286.6-.5.5-.5-.5c-3-2.9-7.8-2.8-10.7.2l-.6.7c-2.9 3-2.8 7.8.2 10.7l.5.5 11.6 11.1 11.1-11.6.5-.5c2.9-3 2.8-7.8-.2-10.7l-.7-.6c-3-2.9-7.8-2.8-10.7.2z"/><path id="XMLID_926_" class="st25" d="m302.7 175.4-.6.7-.7-.6c-3.7-3.5-9.5-3.4-13 .2l-.8.8c-3.5 3.7-3.4 9.5.2 13l.7.6 14.1 13.6 13.6-14.1.6-.7c3.5-3.7 3.4-9.5-.2-13l-.8-.8c-3.8-3.5-9.6-3.4-13.1.3z"/><path id="XMLID_937_" class="st25" d="m324.8 200-.5.5-.5-.5c-3-2.9-7.8-2.8-10.7.2l-.6.7c-2.9 3-2.8 7.8.2 10.7l.5.5 11.6 11.1 11.1-11.6.5-.5c2.9-3 2.8-7.8-.2-10.7l-.7-.6c-3-2.9-7.8-2.8-10.7.2z"/><path id="XMLID_938_" class="st25" d="m234.5 98.1-.6.7-.7-.6c-3.7-3.5-9.5-3.4-13 .2l-.8.8c-3.5 3.7-3.4 9.5.2 13l.7.6 14.1 13.6 13.6-14.1.6-.7c3.5-3.7 3.4-9.5-.2-13l-.8-.8c-3.7-3.5-9.6-3.4-13.1.3z"/><path id="XMLID_939_" class="st25" d="m256.6 122.7-.5.5-.5-.5c-3-2.9-7.8-2.8-10.7.2l-.6.7c-2.9 3-2.8 7.8.2 10.7l.5.5 11.6 11.1 11.1-11.6.5-.5c2.9-3 2.8-7.8-.2-10.7l-.7-.6c-3-2.9-7.8-2.8-10.7.2z"/><g id="XMLID_501_"><path id="XMLID_960_" d="M105.8 348.8v21.9c.7 11.3 10.2 20.3 21.7 20.3h6.7c11.5 0 20.9-9 21.6-20.3h.1c.6 11.3 10.1 20.3 21.6 20.3h6.7c11.5 0 20.9-9 21.6-20.3h.1c.6 11.3 10.1 20.3 21.6 20.3h8.1c9.9-.6 17.9-7.9 19.8-17.4 2 9.9 10.7 17.4 21.2 17.4h6.7c11.5 0 20.9-9 21.6-20.3h.1c.7 11.3 10.1 20.3 21.6 20.3h6.7c11.5 0 20.9-9 21.6-20.3h.1c.7 11.3 10.1 20.3 21.6 20.3h6.7c11.5 0 20.9-9 21.6-20.3v-21.9H105.8z" style="fill:#c3a56d"/></g><g id="XMLID_502_"><path id="XMLID_1004_" d="M105.8 348.8v21.9c.7 11.3 10.2 20.3 21.7 20.3h6.7c11.5 0 20.9-9 21.6-20.3h.1c.6 11.3 10.1 20.3 21.6 20.3h6.7c11.5 0 20.9-9 21.6-20.3h.1c.6 11.3 10.1 20.3 21.6 20.3h8.1c-12.2-14-20.5-29.9-25.5-42.2H105.8z" style="fill:#b09565"/></g><g><circle id="XMLID_948_" class="st30" cx="129.3" cy="375.7" r="7.5"/><circle id="XMLID_1234_" class="st30" cx="181.8" cy="375.7" r="7.5"/><circle id="XMLID_1431_" class="st30" cx="231.8" cy="375.7" r="7.5"/><circle id="XMLID_1453_" class="st30" cx="279.8" cy="375.7" r="7.5"/><circle id="XMLID_1482_" class="st30" cx="330" cy="375.7" r="7.5"/><circle id="XMLID_1540_" class="st30" cx="380.8" cy="375.7" r="7.5"/></g></g></g></svg>
