<svg xmlns="http://www.w3.org/2000/svg" viewBox="0 0 512 512"><path d="M469.333 256C448 362.667 384 469.333 384 469.333s-21.333 21.334-128 21.334-128-21.334-128-21.334S64 362.667 42.667 256z" style="fill:#c82e25"/><path d="m300.042 489.25-2.938-42.563c30.667-2.125 47.709-6.343 55.854-9.02 11.74-21.115 41.26-77.021 61.104-139h-72.729V256h128.802l-7 26.74c-21.864 83.479-64.333 160.895-76.822 182.645l-3.323 5.771-6.01 2.854c-9.115 4.334-31.22 12.084-76.938 15.24z" style="fill:#af0a00"/><path d="M248.168 490.568c.022-.003.08-.073.102-.073 33.12-46.265 79.738-127.89 93.063-234.495H42.667C64 362.667 128 469.333 128 469.333s20.486 20.192 120.168 21.235z" style="fill:#d2514a"/><path d="M256 405.333c-43.73 0-80.854-16.062-104.313-44.593A138.153 138.153 0 0 1 128 362.667V320c10.104 0 18.698-1.219 25.542-3.625l16.385-5.76 8.958 14.875c8.365 13.885 29.521 37.177 77.115 37.177 37.438 0 58.458-14.636 69.5-26.917l31.73 28.542c-23.813 26.468-59.761 41.041-101.23 41.041z" style="fill:#c82e25"/><path d="M384 362.667c-14.927 0-28.281-2.032-39.688-6.042l14.146-40.25c12.948 4.552 35.22 5.927 48.625-2l21.73 36.708c-12.98 7.688-28.063 11.584-44.813 11.584z" style="fill:#af0a00"/><path d="M448 192S426.667 21.333 256 21.333 64 192 64 192s-42.667 0-42.667 42.667 64 42.666 64 42.666S85.333 320 128 320s42.667-21.333 42.667-21.333c0 21.333 21.333 64 85.333 64s85.333-42.667 85.333-64c0 0 0 21.333 42.667 21.333s42.667-42.667 42.667-42.667 64 0 64-42.666S448 192 448 192z" style="fill:#fdcf6d"/><path d="M384 298.667c18.344 0 21.24-13.448 21.333-21.459l.042-21.146 21.24-.062c.395 0 42.718-1.292 42.718-21.333 0-18.344-13.448-21.24-21.458-21.334l.25-21.333c21.177.25 42.542 13.542 42.542 42.667 0 33.74-41.854 42.656-64 42.666v.021C426.417 298.635 413.125 320 384 320z" style="fill:#fdbc34"/><path d="M151.125 464.583c-42.969-64.448-64.354-127.875-65.24-130.541l20.23-6.75c.208.625 21.447 63.49 62.76 125.458z" style="fill:#d96c66"/><path d="M192 85.333C85.333 85.333 64 192 64 192s-42.667 0-42.667 42.667 64 42.666 64 42.666S85.333 320 128 320s42.667-21.333 42.667-21.333c0 21.333 21.333 64 85.333 64 85.333 0 106.667-277.334-64-277.334z" style="fill:#fee3aa"/><path d="M256 362.667c-54.813 0-78.104-31.167-83.854-53.334h-6.5C159.615 315.323 147.76 320 128 320c-29.125 0-42.417-21.396-42.667-42.604l-.073-.063c-22.052 0-63.927-8.916-63.927-42.666 0-29.125 21.396-42.417 42.605-42.667l8.614-.094.23 21.334-8.605.093c-8.031.094-21.51 2.99-21.51 21.334 0 20.041 42.323 21.333 42.75 21.333l21 .187.25 20.959c.093 8.041 2.99 21.52 21.333 21.52 13.906 0 19.844-2.676 21.802-3.864l1.02-6.802H192v10.667c0 9.01 10.865 42.666 64 42.666z" style="fill:#fdcf6d"/><circle cx="213.333" cy="85.333" r="21.333" style="fill:#993b17"/><circle cx="320" cy="64" r="21.333" style="fill:#993b17"/><circle cx="277.333" cy="234.667" r="21.333" style="fill:#ad6143"/><circle cx="384" cy="149.333" r="21.333" style="fill:#993b17"/><circle cx="149.333" cy="170.667" r="21.333" style="fill:#ad6143"/><circle cx="288" cy="138.667" r="21.333" style="fill:#fdcf6d"/><circle cx="320" cy="149.333" r="21.333" style="fill:#fdcf6d"/><circle cx="224" cy="181.333" r="10.667" style="fill:#fdcf6d"/><circle cx="426.667" cy="256" r="21.333" style="fill:#fdbc34"/><circle cx="298.667" cy="298.667" r="21.333" style="fill:#fdcf6d"/><circle cx="362.667" cy="234.667" r="21.333" style="fill:#fdbc34"/><circle cx="160" cy="288" r="10.667" style="fill:#fdcf6d"/><circle cx="213.333" cy="256" r="21.333" style="fill:#fdcf6d"/><circle cx="106.667" cy="128" r="21.333" style="fill:#fdcf6d"/><circle cx="160" cy="96" r="10.667" style="fill:#fdcf6d"/></svg>
