<svg xmlns="http://www.w3.org/2000/svg" viewBox="0 0 512.001 512.001" style="enable-background:new 0 0 512.001 512.001" xml:space="preserve"><path style="fill:#f7b239" d="M60.279 91.072a9.375 9.375 0 0 1-9.375-9.375V62.701c0-5.177 4.196-9.375 9.375-9.375s9.375 4.197 9.375 9.375v18.997c0 5.176-4.197 9.374-9.375 9.374zM60.279 165.819a9.375 9.375 0 0 1-9.375-9.375v-18.995c0-5.177 4.196-9.375 9.375-9.375s9.375 4.197 9.375 9.375v18.995a9.375 9.375 0 0 1-9.375 9.375zM107.151 118.948H88.154a9.375 9.375 0 0 1-9.375-9.375 9.375 9.375 0 0 1 9.375-9.375h18.995a9.375 9.375 0 0 1 9.375 9.375c0 5.177-4.196 9.375-9.373 9.375zM32.403 118.948H13.408a9.375 9.375 0 0 1-9.375-9.375 9.375 9.375 0 0 1 9.375-9.375h18.995a9.375 9.375 0 0 1 0 18.75z"/><path style="fill:#cc1b5b" d="M473.517 250.736a9.375 9.375 0 0 1-9.375-9.375v-8.202a9.375 9.375 0 0 1 9.375-9.375 9.375 9.375 0 0 1 9.375 9.375v8.202c-.001 5.178-4.197 9.375-9.375 9.375zM473.517 292.685a9.375 9.375 0 0 1-9.375-9.375v-8.202a9.375 9.375 0 0 1 9.375-9.375 9.375 9.375 0 0 1 9.375 9.375v8.202c-.001 5.178-4.197 9.375-9.375 9.375zM498.593 267.61h-8.203a9.375 9.375 0 0 1-9.375-9.375 9.375 9.375 0 0 1 9.375-9.375h8.203a9.375 9.375 0 0 1 0 18.75zM456.644 267.61h-8.203a9.375 9.375 0 0 1-9.375-9.375 9.375 9.375 0 0 1 9.375-9.375h8.203a9.375 9.375 0 0 1 9.375 9.375 9.374 9.374 0 0 1-9.375 9.375z"/><path style="fill:#f24c8f" d="M249.641 9.375c15.099 0 27.349 12.249 27.349 27.349s-12.249 27.349-27.349 27.349-27.349-12.249-27.349-27.349 12.25-27.349 27.349-27.349z"/><path style="fill:#e09b2d" d="M478.367 358.219v75.784H20.903v-75.784l13.399 9.749c14.737 10.712 34.711 10.724 49.447 0l13.399-9.749 13.387 9.749c14.749 10.712 34.723 10.712 49.46-.013l13.387-9.737 13.387 9.749c14.737 10.712 34.711 10.712 49.46 0l13.387-9.749 13.399 9.749c14.737 10.724 34.711 10.724 49.447 0l13.399-9.749 13.399 9.749c14.737 10.724 34.711 10.724 49.447 0l13.399-9.749 13.412 9.749c14.737 10.724 34.698 10.724 49.447 0l13.402-9.748z"/><path style="fill:#f7b239" d="M430.994 358.219v75.784H68.275v-75.784l10.624 9.749c11.684 10.712 27.522 10.724 39.207 0l10.624-9.749 10.614 9.749c11.694 10.712 27.531 10.712 39.217-.013l10.614-9.737 10.614 9.749c11.684 10.712 27.522 10.712 39.217 0l10.614-9.749 10.624 9.749c11.684 10.724 27.522 10.724 39.207 0l10.624-9.749 10.624 9.749c11.684 10.724 27.522 10.724 39.207 0l10.624-9.749 10.634 9.749c11.684 10.724 27.512 10.724 39.207 0l10.623-9.748z"/><path style="fill:#995c0d" d="M20.903 434.003h457.464v68.621H20.903z"/><path style="fill:#b27214" d="M68.275 434.003h362.719v68.621H68.275z"/><path style="fill:#2197d8" d="M88.574 269.736h322.133v49.91H88.574z"/><path style="fill:#e09b2d" d="M410.708 208.377v61.359H88.574v-61.359l8.037 6.925c13.899 11.949 34.448 11.949 48.335 0l8.037-6.925 8.05 6.925c13.887 11.949 34.436 11.949 48.323 0l8.05-6.925 8.05 6.925c13.899 11.949 34.436 11.949 48.335 0l8.05-6.925 8.05 6.925c13.887 11.949 34.436 11.949 48.323 0l8.062-6.925 8.05 6.937c13.899 11.949 34.436 11.949 48.323 0l8.059-6.937z"/><path style="fill:#2ba5f7" d="M130.781 269.736h237.713v49.91H130.781z"/><path style="fill:#f7b239" d="M368.499 189.628v80.108H130.786v-80.108l5.931 9.041c10.257 15.6 25.42 15.6 35.668 0l5.931-9.041 5.94 9.041c10.247 15.6 25.411 15.6 35.658 0l5.94-9.041 5.94 9.041c10.257 15.6 25.411 15.6 35.668 0l5.94-9.041 5.94 9.041c10.247 15.6 25.411 15.6 35.658 0l5.95-9.041 5.94 9.057c10.257 15.6 25.411 15.6 35.659 0l5.95-9.057z"/><path style="fill:#e09b2d" d="M351.948 105.52v58.197H147.334V105.52c0-4.3.65-8.437 1.862-12.337l8.7 7.062c13.712 11.149 33.361 11.149 47.073 0l10.562-8.587 10.562 8.587c13.712 11.149 33.373 11.149 47.073 0l10.574-8.587 10.562 8.587c13.712 11.149 33.361 11.149 47.073 0l8.7-7.075a41.596 41.596 0 0 1 1.873 12.35z"/><path style="fill:#f7b239" d="M319.75 94.415v69.301H179.532V94.415c0-5.12.445-10.047 1.276-14.69l5.962 8.41c9.397 13.277 22.861 13.277 32.258 0l7.238-10.226 7.238 10.226c9.397 13.277 22.87 13.277 32.258 0l7.246-10.226 7.238 10.226c9.397 13.277 22.861 13.277 32.258 0l5.962-8.425a83.76 83.76 0 0 1 1.284 14.705z"/><path style="fill:#f24c8f" d="M478.367 357.019v1.2l-13.399 9.749c-14.749 10.724-34.711 10.724-49.447 0l-13.412-9.749-13.399 9.749c-14.737 10.724-34.711 10.724-49.447 0l-13.399-9.749-13.399 9.749c-14.737 10.724-34.711 10.724-49.447 0l-13.399-9.749-13.387 9.749c-14.749 10.712-34.723 10.712-49.46 0l-13.387-9.749-13.387 9.737c-14.737 10.724-34.711 10.724-49.46.013l-13.387-9.749-13.399 9.749c-14.737 10.724-34.711 10.712-49.447 0l-13.399-9.749v-1.2c0-20.636 16.737-37.373 37.386-37.373h382.692c20.646-.001 37.383 16.736 37.383 37.372zM147.334 163.717h225.989c20.649 0 37.386 16.737 37.386 37.386v7.275l-8.062 6.937c-13.887 11.949-34.423 11.949-48.323 0l-8.05-6.937-8.062 6.925c-13.887 11.949-34.436 11.949-48.323 0l-8.05-6.925-8.05 6.925c-13.899 11.949-34.436 11.949-48.335 0l-8.05-6.925-8.05 6.925c-13.887 11.949-34.436 11.949-48.323 0l-8.05-6.925-8.037 6.925c-13.887 11.949-34.436 11.949-48.335 0l-8.037-6.925v-7.275c0-20.649 16.737-37.386 37.373-37.386h21.389z"/><path style="fill:#2ba5f7" d="m350.073 93.17-8.7 7.075c-13.712 11.149-33.361 11.149-47.073 0l-10.562-8.587-10.574 8.587c-13.699 11.149-33.361 11.149-47.073 0l-10.562-8.587-10.562 8.587c-13.712 11.149-33.361 11.149-47.073 0l-8.7-7.062c5.262-16.862 20.999-29.111 39.61-29.111h121.668c18.602 0 34.339 12.237 39.601 29.098z"/><path d="M440.987 310.268h-20.904V201.105c0-25.781-20.975-46.758-46.756-46.758h-12.008V105.52c0-28.025-22.806-50.826-50.84-50.826h-28.834a36.49 36.49 0 0 0 4.717-17.972C286.363 16.473 269.889 0 249.641 0s-36.722 16.473-36.722 36.722a36.477 36.477 0 0 0 4.717 17.972h-28.834c-28.034 0-50.84 22.8-50.84 50.826v48.827h-12.009c-25.782 0-46.758 20.975-46.758 46.758v109.163H58.292c-25.781 0-46.756 20.975-46.756 46.758v145.601a9.375 9.375 0 0 0 9.375 9.375h457.46a9.375 9.375 0 0 0 9.375-9.375V357.024c-.001-25.781-20.976-46.756-46.759-46.756zM30.285 376.589c17.915 12.098 41.392 11.752 58.984-1.044l7.878-5.73 7.878 5.73c18.088 13.157 42.395 13.156 60.486-.003l7.871-5.726 7.875 5.727c18.09 13.158 42.397 13.161 60.487 0l7.875-5.728 7.883 5.732c18.087 13.153 42.392 13.156 60.481 0l7.883-5.732 7.885 5.733c18.088 13.154 42.392 13.156 60.479 0l7.886-5.735 7.892 5.74c9.043 6.576 19.639 9.864 30.236 9.863 10.023 0 20.048-2.947 28.756-8.832v48.046H30.285v-48.041zM97.944 227.65c16.788 9.575 37.922 7.831 53.117-5.25l1.926-1.66 1.931 1.661c17.547 15.103 43.014 15.102 60.558 0l1.931-1.662 1.937 1.666c17.543 15.099 43.012 15.099 60.554 0l1.937-1.667 1.939 1.667c17.544 15.099 43.012 15.099 60.553 0l1.94-1.67 1.947 1.675c8.771 7.547 19.522 11.321 30.273 11.321a46.061 46.061 0 0 0 22.845-6.083v32.712H97.944v-32.71zM231.668 36.722c0-9.911 8.062-17.973 17.973-17.973s17.973 8.062 17.973 17.973c0 9.909-8.062 17.972-17.973 17.972-9.911-.001-17.973-8.063-17.973-17.972zm-42.865 36.72h121.676c12.194 0 22.821 6.836 28.25 16.874l-3.269 2.657c-10.209 8.301-25.032 8.301-35.242 0l-10.569-8.593a9.375 9.375 0 0 0-11.828 0l-10.563 8.588c-10.213 8.303-25.035 8.302-35.246 0L221.45 84.38a9.375 9.375 0 0 0-11.828 0l-10.561 8.587c-10.211 8.303-25.034 8.305-35.247 0l-3.261-2.651c5.427-10.036 16.054-16.874 28.25-16.874zm-32.091 37.442c16.685 10.394 38.631 9.275 54.176-3.367l4.647-3.779 4.648 3.779c17.063 13.874 41.834 13.876 58.902 0l4.65-3.78 4.656 3.785c8.533 6.937 18.989 10.406 29.45 10.404 8.601 0 17.2-2.352 24.73-7.043v43.463H156.712v-43.462zm-30.758 62.212h247.374c15.443 0 28.007 12.564 28.007 28.009v2.966l-4.801 4.131c-10.456 8.997-25.634 8.997-36.089 0l-8.062-6.937a9.374 9.374 0 0 0-12.229 0l-8.053 6.932c-10.454 8.998-25.635 9-36.092 0l-8.053-6.931a9.374 9.374 0 0 0-12.231 0l-8.052 6.931c-10.456 8.998-25.635 9.001-36.093 0l-8.052-6.931a9.375 9.375 0 0 0-12.231 0l-8.047 6.927c-10.459 9.002-25.64 9-36.097 0l-8.047-6.926a9.374 9.374 0 0 0-12.232 0l-8.043 6.925c-10.456 9.002-25.637 9.005-36.096.001l-4.789-4.121v-2.966c-.002-15.446 12.563-28.01 28.008-28.01zm-28.01 106.016h303.391v31.156H97.944v-31.156zm-39.652 49.905h382.695c14.286 0 26.1 10.754 27.792 24.59l-9.331 6.783a32.575 32.575 0 0 1-38.419 0l-13.408-9.748a9.374 9.374 0 0 0-11.026 0l-13.398 9.743a32.577 32.577 0 0 1-38.424 0l-13.398-9.743a9.372 9.372 0 0 0-11.027 0l-13.397 9.743a32.58 32.58 0 0 1-38.426 0l-13.397-9.743a9.374 9.374 0 0 0-11.028 0l-13.389 9.739a32.573 32.573 0 0 1-38.427 0l-13.389-9.739a9.376 9.376 0 0 0-11.029 0l-13.386 9.738a32.573 32.573 0 0 1-38.428.001l-13.392-9.739a9.372 9.372 0 0 0-11.027 0l-13.393 9.739a32.575 32.575 0 0 1-38.426 0l-9.315-6.776c1.693-13.834 13.506-24.588 27.793-24.588zM30.285 493.251v-49.87h438.711v49.87H30.285z"/></svg>
