<svg version="1.2" baseProfile="tiny" xmlns="http://www.w3.org/2000/svg" width="256" height="256" xml:space="preserve"><switch><g><g stroke-width="4" stroke-linecap="round" stroke-linejoin="round" stroke-miterlimit="10"><path fill="#EFEFEF" stroke="#53AEE1" d="M215 70V57c0-3.3-2.7-6-6-6h-13v25h13c3.3 0 6-2.7 6-6z"/><path fill="#EFEFEF" stroke="#EE5325" d="M209 117a6 6 0 0 0 6-6V98a6 6 0 0 0-6-6h-13v25h13z"/><path fill="#EFEFEF" stroke="#F9B618" d="M209 157a6 6 0 0 0 6-6v-13a6 6 0 0 0-6-6h-13v25h13z"/><path fill="#EFEFEF" stroke="#BABABA" d="M209 198c3.3 0 6-2.7 6-6v-13c0-3.3-2.7-6-6-6h-13v25h13zM67 35c-5.5 0-10 4.5-10 10v160c0 5.5 4.5 10 10 10h13V35H67z"/><path fill="none" stroke="#BABABA" d="M186 35H80v180h106c5.5 0 10-4.5 10-10V45c0-5.5-4.5-10-10-10z"/><g fill="none" stroke="#F9B618"><path d="M157.166 108.334c0 10.676-8.656 23.941-19.333 23.941S118.5 119.01 118.5 108.334C118.5 97.656 127.156 89 137.833 89s19.333 8.656 19.333 19.334z"/><path d="M130.142 130.222c0 9.722-5.309 12.194-14.059 12.194S103.5 155 103.5 155h68s-3.833-12.584-12.583-12.584-14.059-2.473-14.059-12.194"/></g><path fill="#EFEFEF" stroke="#EE5325" d="M69 51H45"/><path fill="none" stroke="#BABABA" d="M69 72H45M69 93H45"/><path fill="#EFEFEF" stroke="#53AEE1" d="M69 114H45M69 135H45"/><path fill="none" stroke="#BABABA" d="M69 156H45M69 177H45"/><path fill="#EFEFEF" stroke="#EE5325" d="M69 198H45"/></g></g></switch></svg>
